<?xml version="1.0" encoding="UTF-8"?><svg xmlns="http://www.w3.org/2000/svg" viewBox="0 0 1455 805"><defs><style>.c{fill:#ea3b8e;}</style></defs><g id="a"/><g id="b"><path class="c" d="M20,7V775H1386V7H20ZM225,532.5c-52.19,0-94.5-42.31-94.5-94.5s42.31-94.5,94.5-94.5,94.5,42.31,94.5,94.5-42.31,94.5-94.5,94.5Zm482.07-37.03c-52.19,0-94.5-42.31-94.5-94.5s42.31-94.5,94.5-94.5,94.5,42.31,94.5,94.5-42.31,94.5-94.5,94.5Zm321.93,236.03c-52.19,0-94.5-42.31-94.5-94.5s42.31-94.5,94.5-94.5,94.5,42.31,94.5,94.5-42.31,94.5-94.5,94.5Zm15-331c-52.19,0-94.5-42.31-94.5-94.5s42.31-94.5,94.5-94.5,94.5,42.31,94.5,94.5-42.31,94.5-94.5,94.5Z"/></g></svg>