<?xml version="1.0" encoding="UTF-8" standalone="no"?>
<svg
   xmlns:dc="http://purl.org/dc/elements/1.1/"
   xmlns:cc="http://creativecommons.org/ns#"
   xmlns:rdf="http://www.w3.org/1999/02/22-rdf-syntax-ns#"
   xmlns:svg="http://www.w3.org/2000/svg"
   xmlns="http://www.w3.org/2000/svg"
   xmlns:sodipodi="http://sodipodi.sourceforge.net/DTD/sodipodi-0.dtd"
   xmlns:inkscape="http://www.inkscape.org/namespaces/inkscape"
   width="100"
   height="100"
   viewBox="0 0 26.458333 26.458334"
   version="1.1"
   id="svg8"
   inkscape:version="1.0 (4035a4f, 2020-05-01)"
   sodipodi:docname="onion.svg">
  <defs
     id="defs2" />
  <sodipodi:namedview
     units="px"
     id="base"
     pagecolor="#ffffff"
     bordercolor="#666666"
     borderopacity="1.0"
     inkscape:pageopacity="0.0"
     inkscape:pageshadow="2"
     inkscape:zoom="1.4068743"
     inkscape:cx="74.531778"
     inkscape:cy="64.884653"
     inkscape:document-units="px"
     inkscape:current-layer="layer1"
     inkscape:document-rotation="0"
     showgrid="false"
     inkscape:window-width="1252"
     inkscape:window-height="772"
     inkscape:window-x="28"
     inkscape:window-y="0"
     inkscape:window-maximized="0" />
  <metadata
     id="metadata5">
    <rdf:RDF>
      <cc:Work
         rdf:about="">
        <dc:format>image/svg+xml</dc:format>
        <dc:type
           rdf:resource="http://purl.org/dc/dcmitype/StillImage" />
        <dc:title></dc:title>
      </cc:Work>
    </rdf:RDF>
  </metadata>
  <g
     inkscape:label="Layer 1"
     inkscape:groupmode="layer"
     id="layer1">
    <path
       style="fill:#000000;stroke-width:0.0460298"
       d="m 10.164665,25.244332 c 0.02593,-0.06182 0.04764,-0.234332 0.04823,-0.383377 0.0015,-0.393781 0.111005,-0.574751 0.521676,-0.86248 0.397377,-0.278415 0.487593,-0.433257 0.391995,-0.672792 -0.03263,-0.08175 -0.04726,-0.177107 -0.03255,-0.211894 0.03151,-0.0744 1.152251,-0.228301 1.333329,-0.183093 0.06217,0.01552 0.166978,0.0013 0.235622,-0.03199 0.116187,-0.05634 0.131922,-0.05097 0.261059,0.0892 0.191725,0.208079 0.259149,0.534542 0.24332,1.178136 -0.01245,0.502812 -0.0055,0.55014 0.09842,0.687669 0.102693,0.135792 0.268555,0.240139 0.381708,0.240139 0.09532,0 0.04105,-0.153688 -0.08691,-0.246103 -0.132847,-0.09595 -0.132989,-0.09667 -0.140788,-0.706274 -0.0078,-0.611194 -0.06246,-0.894011 -0.229192,-1.186137 -0.04215,-0.07385 -0.06493,-0.161942 -0.05062,-0.195746 0.01494,-0.03527 0.185229,-0.09246 0.39971,-0.134219 0.441013,-0.08586 0.540723,-0.09007 0.540723,-0.02281 0,0.02746 0.09959,0.199983 0.221293,0.383377 0.243123,0.366329 0.358996,0.697481 0.358996,1.025977 0,0.27753 0.124927,0.663066 0.257874,0.795775 0.0833,0.08315 0.127141,0.09657 0.213611,0.06536 0.126132,-0.04551 0.141097,-0.10911 0.03441,-0.1462 -0.04091,-0.01422 -0.127749,-0.129704 -0.192958,-0.256623 -0.09141,-0.17792 -0.119167,-0.305994 -0.121166,-0.559364 -0.0015,-0.180734 -0.03099,-0.400613 -0.06568,-0.488619 -0.0753,-0.191017 -0.448967,-0.737423 -0.557253,-0.814887 -0.197538,-0.141316 0.433479,-0.337481 0.98436,-0.306011 0.268559,0.01536 0.290209,0.02476 0.332904,0.144794 0.02511,0.07061 0.06421,0.149804 0.08687,0.175981 0.02266,0.02617 0.07231,0.127432 0.110314,0.225021 0.09349,0.240071 0.29449,0.52134 0.430106,0.601852 0.06126,0.03636 0.306138,0.09797 0.544187,0.136909 0.609949,0.09976 0.659708,0.121372 0.620809,0.269691 -0.01746,0.06654 -0.06146,0.152118 -0.09778,0.190163 -0.07905,0.08279 -0.08628,0.171807 -0.01396,0.171807 0.02865,0 0.116954,-0.05878 0.196254,-0.130631 C 17.545862,23.976138 17.5655,23.927945 17.55285,23.769605 17.5346,23.541249 17.45616,23.499499 16.919383,23.432498 16.44932,23.373828 16.302089,23.305693 16.121561,23.063336 15.94689,22.828821 15.65439,22.14148 15.69174,22.053289 c 0.01524,-0.03597 0.123053,-0.07715 0.245499,-0.0938 0.143567,-0.01951 0.321641,-0.09558 0.520011,-0.222138 0.165924,-0.105859 0.324632,-0.19248 0.352683,-0.192486 0.02806,-3e-6 0.170689,-0.05968 0.31697,-0.132619 0.146281,-0.07294 0.525841,-0.251112 0.843467,-0.39595 0.317627,-0.144837 0.600517,-0.27902 0.628648,-0.29818 0.02813,-0.01917 0.127309,-0.0613 0.220394,-0.09365 0.0931,-0.03233 0.223652,-0.09178 0.290144,-0.132086 0.06649,-0.0403 0.186177,-0.09468 0.265966,-0.12085 0.07979,-0.02617 0.305094,-0.108039 0.500675,-0.181958 0.195581,-0.07391 0.429014,-0.134391 0.518738,-0.134391 0.233457,0 0.760927,-0.19087 0.991573,-0.358809 0.11249,-0.08191 0.248027,-0.241097 0.315826,-0.370951 0.153044,-0.293116 0.723099,-0.891932 0.939203,-0.986588 0.09205,-0.04033 0.264762,-0.109332 0.383805,-0.153351 0.455616,-0.168491 0.79726,-0.668623 1.28181,-1.876435 0.06812,-0.169784 0.09287,-0.392707 0.110062,-0.990841 0.02066,-0.719127 0.01332,-0.807293 -0.107447,-1.292525 -0.07128,-0.286415 -0.171582,-0.605077 -0.222865,-0.708138 -0.05128,-0.103063 -0.09324,-0.213969 -0.09324,-0.246462 0,-0.08371 -0.321313,-0.712438 -0.381241,-0.745997 -0.05078,-0.02843 -0.585903,-0.716499 -0.585903,-0.753357 0,-0.05999 -0.413548,-0.512092 -0.682032,-0.745609 C 21.947665,10.480969 21.440491,10.095757 21.28566,10.021905 21.219177,9.9901908 21.077723,9.9009859 20.971337,9.8236722 20.755157,9.6665693 20.744168,9.6609125 19.974993,9.3107384 19.671892,9.1727471 19.347737,9.0205213 19.254649,8.9724563 19.161556,8.9243906 18.911313,8.8092088 18.698539,8.7164957 18.485766,8.6237824 18.268157,8.5260368 18.214965,8.499283 18.161776,8.4725249 18.020327,8.4114593 17.900643,8.3635708 17.780953,8.3156813 17.53574,8.2151319 17.355715,8.140122 16.893091,7.9473647 16.387294,7.787145 16.241404,7.787145 c -0.06835,0 -0.137727,-0.019721 -0.154165,-0.043815 -0.01644,-0.024094 -0.07963,-0.043815 -0.14043,-0.043815 -0.06079,0 -0.152001,-0.041698 -0.202667,-0.092656 -0.05067,-0.050958 -0.135641,-0.1103204 -0.188836,-0.1319094 -0.05318,-0.02159 -0.183756,-0.089175 -0.290144,-0.1501921 -0.10639,-0.061013 -0.231511,-0.1222552 -0.278054,-0.1360872 -0.04654,-0.013828 -0.08463,-0.042563 -0.08463,-0.063853 0,-0.021291 -0.02752,-0.038709 -0.06116,-0.038709 -0.03364,0 -0.142363,-0.039432 -0.241609,-0.08763 -0.09925,-0.048198 -0.225609,-0.08763 -0.280805,-0.08763 -0.09672,0 -0.576205,-0.3771836 -0.576737,-0.4536973 -1.46e-4,-0.020602 -0.06555,-0.1251021 -0.145335,-0.2322224 -0.07979,-0.1071183 -0.145071,-0.2055807 -0.145071,-0.2188036 0,-0.01322 -0.03099,-0.086174 -0.06884,-0.162108 C 12.995954,5.0680221 12.789848,4.4785031 12.746754,4.0243912 12.724709,3.7921459 12.744364,3.6513104 12.845787,3.3180687 13.047798,2.6537239 13.04729,2.689954 12.857231,2.5020229 12.695739,2.3423596 12.676044,2.3354108 12.413241,2.345375 c -0.348646,0.01322 -0.707959,0.1630551 -0.756521,0.3154776 -0.0192,0.060246 -0.04883,0.2031889 -0.06585,0.3176544 -0.01983,0.1333619 -0.05474,0.208118 -0.0972,0.208118 -0.03643,0 -0.149349,-0.1517205 -0.250914,-0.3371576 -0.162466,-0.2966262 -0.204875,-0.3418575 -0.352783,-0.376247 -0.149463,-0.034748 -0.180436,-0.026115 -0.279152,0.077876 -0.08875,0.093486 -0.109371,0.1633215 -0.102719,0.3479244 0.0094,0.2606631 -0.02191,0.3314214 -0.146626,0.3314214 -0.100995,0 -0.3872813,-0.1227005 -0.479513,-0.205512 C 9.7930336,2.9450797 9.6603122,2.9533514 9.5721704,3.0442267 9.4701186,3.14945 9.5324815,3.7936232 9.6686512,4.0410043 9.8113237,4.3001771 9.9259427,4.817876 9.9303427,5.2229951 9.9346187,5.6113503 9.85348,5.8411721 9.6017472,6.1543196 9.3001894,6.5294553 8.5436848,7.0913176 8.0097304,7.3367241 7.8933285,7.3902225 7.7634636,7.4818812 7.721136,7.5404112 c -0.04232,0.058534 -0.1466204,0.1317286 -0.2317621,0.1626627 -0.085145,0.030939 -0.2067001,0.092078 -0.2701296,0.1358747 -0.063434,0.043797 -0.1532482,0.07963 -0.1995985,0.07963 -0.046356,0 -0.1102046,0.02831 -0.1418913,0.062909 -0.031684,0.034599 -0.1191196,0.075141 -0.19429,0.090103 -0.3004263,0.059779 -0.936695,0.720028 -1.2670609,1.3147752 -0.1060132,0.1908434 -0.2208876,0.3436407 -0.6931772,0.9219822 -0.053188,0.06514 -0.1293534,0.163233 -0.1692513,0.217989 -0.039887,0.05475 -0.2238777,0.303716 -0.4088524,0.553244 -0.1849735,0.24953 -0.389227,0.542413 -0.4538946,0.650853 -0.064663,0.108444 -0.1856513,0.295748 -0.2688474,0.416239 -0.083205,0.120485 -0.1821981,0.268362 -0.2200001,0.328607 -0.543566,0.86625 -0.8516321,1.446566 -0.8929402,1.68208 -0.014788,0.08426 -0.057328,0.228248 -0.094538,0.319968 -0.2207456,0.544014 -0.294973,0.895868 -0.363311,1.722175 -0.044338,0.536181 -0.024245,0.823384 0.091962,1.314433 0.031361,0.13254 0.076049,0.325057 0.099285,0.427817 0.023236,0.102763 0.061532,0.22106 0.085105,0.262886 0.023573,0.04183 0.090979,0.243639 0.1498145,0.448472 0.1318347,0.459022 0.2577325,0.775494 0.4149682,1.043109 0.066216,0.112701 0.1203872,0.218435 0.1203872,0.234973 0,0.04063 0.3304822,0.546647 0.4822686,0.738424 0.6495908,0.820726 1.280859,1.364195 1.9374376,1.667967 0.1718672,0.07952 0.3451306,0.167816 0.3850246,0.196221 0.0399,0.0284 0.1922213,0.07681 0.3385012,0.107582 0.1462826,0.03077 0.359211,0.08251 0.4731759,0.115013 0.1139698,0.03249 0.278155,0.05908 0.3648675,0.05908 0.086709,0 0.363404,0.03901 0.6148667,0.08669 0.2514653,0.04768 0.8890717,0.11419 1.4169065,0.147819 0.8388016,0.05344 0.9717795,0.07209 1.0555903,0.148017 0.095626,0.08663 0.095487,0.0875 -0.049334,0.30128 -0.079868,0.117925 -0.1597089,0.267166 -0.1774155,0.331661 -0.017707,0.0645 -0.073756,0.151349 -0.1245623,0.193003 -0.050806,0.04166 -0.092368,0.113092 -0.092368,0.158751 0,0.225289 -0.3013854,0.472992 -0.5755069,0.472992 -0.057975,0 -0.1014984,0.02818 -0.1014984,0.06573 0,0.08039 0.3376287,0.0916 0.4988416,0.01656 0.1629006,-0.07583 0.3715918,-0.26653 0.3715918,-0.339557 0,-0.08414 0.3148672,-0.642194 0.4648225,-0.823828 0.110515,-0.133868 0.511739,-0.40858 0.596735,-0.40858 0.03993,0 0.147377,0.232291 0.147377,0.318592 0,0.02344 -0.171471,0.202882 -0.381045,0.398746 -0.415685,0.388485 -0.5503013,0.582555 -0.5299313,0.763975 0.0073,0.06485 -0.0035,0.197664 -0.02403,0.295136 -0.067683,0.321755 0.1463013,0.570963 0.2592113,0.301883 z M 9.8607839,22.809405 C 9.8041933,22.781967 9.6731482,22.688307 9.569571,22.601286 9.465985,22.51426 9.3450797,22.425368 9.3008748,22.403743 9.1906048,22.349794 8.5471895,21.755764 8.2519682,21.43533 8.1187542,21.290745 7.9622092,21.123153 7.904087,21.062908 7.5348647,20.680195 7.0582913,19.416639 6.9769609,18.604776 6.8036523,16.874803 7.088861,11.328595 7.3652718,11.053509 c 0.023003,-0.0229 0.041828,-0.09196 0.041828,-0.153489 0,-0.106701 0.1176318,-0.505951 0.2458721,-0.834525 C 7.7285037,9.8719762 7.9051494,9.3967947 7.9868717,9.1673002 8.0211958,9.0709084 8.1519441,8.7948774 8.2774238,8.5538974 8.4028957,8.3129182 8.5194029,8.0861789 8.5363154,8.0500325 8.553226,8.013882 8.5871489,7.9547354 8.6117042,7.9185896 8.6362595,7.882439 8.6930967,7.7764973 8.7380041,7.6831553 8.8194871,7.5138074 9.1378082,7.1621101 9.5656184,6.7687509 9.7330689,6.614785 9.8074014,6.5727657 9.8524261,6.6066218 c 0.038192,0.028725 0.1926119,0.034898 0.4156069,0.016624 l 0.354834,-0.029069 0.249538,0.2391915 c 0.137247,0.1315548 0.337927,0.3077387 0.445952,0.3915187 0.108038,0.083784 0.373419,0.3382149 0.589757,0.5654111 0.216339,0.2271962 0.430399,0.4292041 0.475691,0.448905 0.0453,0.019702 0.122324,0.1030843 0.17119,0.1852923 0.04887,0.082207 0.125103,0.1598997 0.169446,0.172649 0.04433,0.012759 0.180686,0.1466766 0.303005,0.2976175 0.122311,0.1509409 0.398325,0.4415988 0.613346,0.6459086 0.215019,0.2043098 0.39102,0.3732378 0.391108,0.3753933 9.8e-5,0.00212 0.119884,0.1204542 0.266213,0.2628862 0.146328,0.142431 0.358496,0.37641 0.471486,0.519956 0.112993,0.143543 0.259837,0.312854 0.326328,0.376243 0.06649,0.06339 0.201283,0.212117 0.299536,0.330504 0.09825,0.118395 0.224423,0.264542 0.280379,0.324787 0.115256,0.124088 0.238898,0.282472 0.56438,0.722937 0.124662,0.168688 0.257698,0.323598 0.295659,0.344249 0.03795,0.02065 0.121859,0.138949 0.18645,0.262887 0.06459,0.123932 0.202624,0.353497 0.30675,0.510132 0.104127,0.156638 0.190502,0.309007 0.191947,0.338601 0.0015,0.02959 0.0788,0.201201 0.171876,0.381349 0.0931,0.180149 0.169251,0.358392 0.169251,0.396097 0,0.0377 0.04144,0.211136 0.09209,0.385402 0.05065,0.174268 0.106302,0.445006 0.123644,0.601641 0.03047,0.275037 0.06801,0.488081 0.171798,0.97487 0.07176,0.336551 0.07373,1.33363 0.0031,1.561723 -0.03279,0.105884 -0.06645,0.283334 -0.07479,0.394329 -0.0084,0.110991 -0.09594,0.405255 -0.194617,0.653911 -0.179515,0.452309 -0.425742,0.824917 -0.873854,1.322382 -0.247657,0.274932 -0.21805,0.246007 -0.504661,0.493041 -0.284394,0.245124 -0.404379,0.380535 -0.486957,0.549563 -0.0614,0.125695 -0.09283,0.140939 -0.343524,0.166637 -0.177221,0.01817 -0.285797,0.05157 -0.303507,0.09339 -0.02432,0.05742 -0.04078,0.05727 -0.139382,-0.0013 -0.0615,-0.0365 -0.202717,-0.09105 -0.31383,-0.121216 -0.111106,-0.03017 -0.201645,-0.07637 -0.201183,-0.102671 4.75e-4,-0.02632 0.03358,-0.185849 0.07357,-0.354534 0.08006,-0.337513 0.172914,-0.756357 0.272014,-1.226804 0.08192,-0.388922 0.07596,-2.118415 -0.0097,-2.826028 -0.03358,-0.277126 -0.06671,-0.641883 -0.07368,-0.810568 -0.02294,-0.556017 -0.267326,-1.35756 -0.632804,-2.07544 -0.06909,-0.135698 -0.165675,-0.372322 -0.214646,-0.525834 -0.04897,-0.15351 -0.122475,-0.325337 -0.163323,-0.381834 -0.04086,-0.05649 -0.07428,-0.133257 -0.07428,-0.170581 0,-0.03732 -0.01991,-0.102097 -0.04425,-0.143939 -0.168407,-0.289486 -0.538954,-1.02472 -0.584562,-1.159875 -0.03033,-0.09004 -0.07569,-0.175182 -0.100743,-0.189216 -0.02506,-0.01403 -0.07747,-0.08824 -0.116463,-0.164914 -0.039,-0.07667 -0.109874,-0.19855 -0.157503,-0.270844 -0.04773,-0.07231 -0.170311,-0.259614 -0.272504,-0.416251 -0.171767,-0.263271 -0.384695,-0.530723 -0.561586,-0.70539 -0.03988,-0.0394 -0.2031,-0.214163 -0.362681,-0.3883749 C 10.861496,9.1581827 10.915406,9.1939657 10.461432,9.1630669 9.7611278,9.1154068 9.4013257,9.2814834 9.2095312,9.740925 c -0.1942176,0.465251 -0.3516695,0.915876 -0.3516695,1.006481 0,0.05555 -0.021361,0.151903 -0.04747,0.214126 -0.026108,0.06222 -0.057445,0.650072 -0.069632,1.306331 -0.018902,1.017842 -0.00905,1.267244 0.067381,1.697062 0.049241,0.277126 0.1028177,0.710889 0.1190416,0.963918 0.030429,0.474508 0.1730618,1.438256 0.2982982,2.015463 0.039211,0.180732 0.1040388,0.505823 0.1440559,0.722421 0.081968,0.443684 0.319463,1.216857 0.4633881,1.508602 0.1136712,0.230424 0.1805705,0.412202 0.3560275,0.967427 0.135499,0.428781 0.399596,0.991102 0.516425,1.099582 0.03642,0.03382 0.119507,0.140366 0.184624,0.236756 0.06512,0.09639 0.212314,0.279743 0.327103,0.407447 0.133749,0.148794 0.199156,0.259464 0.182109,0.308127 -0.03666,0.104683 -0.502513,0.513349 -0.679582,0.59618 -0.171258,0.0801 -0.707903,0.09167 -0.8587935,0.0185 z m 1.6107151,-0.11705 c 0.03858,-0.01071 0.118903,-0.05964 0.178482,-0.108744 0.09256,-0.07629 0.126545,-0.08176 0.233495,-0.03761 0.184985,0.07637 0.118111,0.156824 -0.152141,0.183059 -0.236291,0.02294 -0.394349,6.62e-4 -0.259836,-0.03671 z M 7.5279882,22.643226 C 6.4780736,22.4919 6.0546673,22.39033 5.5936931,22.17922 4.9303727,21.87544 4.8395872,21.821937 4.5144833,21.543172 4.1972585,21.271167 3.3934295,20.350022 3.3934295,20.258509 c 0,-0.01459 -0.082388,-0.150102 -0.1830832,-0.30114 C 2.9129902,19.511358 2.5192764,18.427567 2.2988351,17.448225 2.1977126,16.99899 2.151216,15.881648 2.2277924,15.741105 c 0.026755,-0.0491 0.059515,-0.202935 0.072802,-0.341858 0.013288,-0.138922 0.038995,-0.274334 0.057121,-0.300915 0.018125,-0.02659 0.049307,-0.110076 0.069269,-0.185558 0.1018468,-0.384913 0.2538083,-0.845606 0.3117806,-0.945185 0.035902,-0.06168 0.1034905,-0.210729 0.150173,-0.331217 0.04668,-0.120485 0.1765715,-0.357086 0.2886385,-0.525774 0.1120683,-0.168686 0.2509258,-0.395425 0.3085758,-0.503865 0.057651,-0.108444 0.169682,-0.27603 0.2489566,-0.372423 0.079271,-0.09639 0.2193559,-0.307063 0.3112902,-0.468157 0.091938,-0.161098 0.2339558,-0.377979 0.3155993,-0.481959 0.08165,-0.103981 0.2241986,-0.292569 0.3167836,-0.419083 0.092584,-0.126514 0.1878948,-0.230026 0.2117963,-0.230026 0.023896,0 -3.648e-4,0.133086 -0.053835,0.295748 -0.1515042,0.460551 -0.1805434,0.566414 -0.3094866,1.12822 -0.066372,0.289175 -0.1546689,0.673647 -0.1962204,0.854381 -0.063745,0.277293 -0.1045254,0.967747 -0.1293792,2.190719 -0.00595,0.294053 0.063473,2.258721 0.090397,2.557329 0.014917,0.165486 0.056332,0.362652 0.092028,0.438143 0.084343,0.178363 0.2598348,0.685815 0.342948,0.99164 0.078856,0.290169 0.2179016,0.541576 0.5059074,0.91476 0.1186153,0.1537 0.2374301,0.311432 0.2640266,0.350517 0.0266,0.03909 0.1151733,0.149927 0.1968401,0.24632 0.081664,0.09639 0.1969914,0.267303 0.2562807,0.379805 0.059294,0.112506 0.2031965,0.280089 0.319788,0.372422 0.3806735,0.301459 0.743181,0.540298 0.820066,0.540298 0.041439,0 0.07535,0.01538 0.07535,0.03416 0,0.05046 0.7579072,0.500301 1.0517726,0.624265 0.1396338,0.05891 0.2538781,0.122156 0.2538781,0.140565 0,0.05522 -0.3287304,0.03736 -0.9429711,-0.05117 z m 4.8152748,-0.160241 c -0.08183,-0.06238 -0.148784,-0.137866 -0.148784,-0.167732 0,-0.08016 0.399844,-0.147287 0.894612,-0.150184 0.500159,-0.0029 0.961311,0.03487 0.917298,0.07518 -0.02638,0.02416 -1.308404,0.331429 -1.457607,0.349353 -0.03121,0.0038 -0.123682,-0.04423 -0.205519,-0.106616 z M 8.622615,22.467401 C 8.525904,22.420544 8.316214,22.328529 8.1566365,22.26293 7.9970562,22.197331 7.8526018,22.124702 7.8356273,22.101535 7.8186528,22.078366 7.7061782,22.007716 7.5856861,21.944535 6.9659431,21.619575 6.3809434,21.157095 6.1368488,20.799143 6.0632321,20.691188 5.8717808,20.435272 5.7113971,20.230439 5.2795474,19.678908 5.1008518,19.388623 5.0609809,19.173873 5.0413541,19.068194 4.9736629,18.875764 4.9105518,18.746252 4.8474281,18.616743 4.7957922,18.488342 4.7957922,18.460926 c 0,-0.02742 -0.057535,-0.20734 -0.1278524,-0.39983 l -0.1278525,-0.349984 0.00259,-2.081186 c 0.00208,-1.647058 0.017802,-2.16344 0.075738,-2.475514 0.040262,-0.21688 0.1098298,-0.591493 0.1545964,-0.832472 0.044766,-0.240981 0.1014595,-0.472367 0.1259894,-0.514193 0.02453,-0.04183 0.064352,-0.160126 0.088509,-0.262886 0.068184,-0.290098 0.1250199,-0.459204 0.3120298,-0.928414 0.095326,-0.239179 0.1733228,-0.485898 0.1733228,-0.548264 0,-0.06236 0.081599,-0.2190429 0.1813406,-0.3481707 C 5.7539418,9.5908828 5.8711839,9.4366629 5.9147445,9.377303 6.0129821,9.2434401 6.7424608,8.5673892 7.027091,8.3464302 7.1430407,8.2564183 7.3513749,8.1312215 7.4900577,8.0682137 7.6287405,8.0052078 7.7545644,7.921119 7.7696617,7.8813549 7.7968182,7.8098382 8.0089419,7.6560831 8.3935618,7.4291242 8.723586,7.2343818 8.7419086,7.2663486 8.494982,7.6060682 8.4017643,7.7343053 8.3117268,7.8915872 8.2948829,7.9555844 8.278038,8.0195781 8.244981,8.0942407 8.2214341,8.1214944 8.0301069,8.3428336 7.542055,9.3388476 7.4084114,9.7807058 c -0.021865,0.072293 -0.09891,0.3088902 -0.1712229,0.5257722 -0.1928889,0.578567 -0.3115011,1.057764 -0.3416127,1.380153 -0.014619,0.156636 -0.057509,0.481958 -0.095287,0.722938 -0.037779,0.240978 -0.081057,0.783181 -0.096168,1.204896 -0.015111,0.421712 -0.038257,0.934342 -0.051428,1.139173 -0.051015,0.793877 -0.041013,3.747469 0.013728,4.052834 0.2005351,1.118503 0.5238926,1.913363 0.9730634,2.391917 0.1248892,0.133062 0.2814747,0.309814 0.3479653,0.392787 0.066488,0.08298 0.3246473,0.333236 0.5736777,0.556143 0.3636124,0.325467 0.431574,0.405284 0.3450853,0.405284 -0.05923,0 -0.1868224,-0.03834 -0.2835319,-0.08521 z m 5.796304,-0.506293 c 0,-0.03615 0.02176,-0.06573 0.04835,-0.06573 0.0266,0 0.04835,0.02957 0.04835,0.06573 0,0.03615 -0.02176,0.06573 -0.04835,0.06573 -0.0266,0 -0.04835,-0.02958 -0.04835,-0.06573 z m -0.888591,-0.02077 c -0.162366,-0.02409 -0.317789,-0.02591 -0.362682,-0.0042 -0.0432,0.02086 -0.209119,0.02399 -0.368699,0.0069 l -0.290144,-0.03095 0.241788,-0.06822 c 0.198209,-0.05593 0.342012,-0.06129 0.797895,-0.02974 0.60325,0.04175 0.677004,0.05523 0.677004,0.123658 0,0.0566 -0.322778,0.05777 -0.695162,0.0026 z m -2.049873,-0.209266 c -0.132011,-0.138563 -0.254057,-0.291364 -0.271214,-0.339561 -0.01717,-0.0482 -0.09874,-0.156637 -0.181306,-0.240979 C 10.85179,20.97059 10.696143,20.667493 10.525268,20.17167 10.45751,19.975059 10.313151,19.598499 10.204473,19.334867 9.9592987,18.740126 9.7909838,18.199201 9.7264893,17.798734 9.6993258,17.630051 9.657738,17.432884 9.6340831,17.360591 9.5732921,17.174817 9.4905503,16.775231 9.4072803,16.26523 9.3366552,15.832696 9.3026002,15.542913 9.201274,14.512655 9.1728404,14.223481 9.1242982,13.917875 9.0933997,13.833531 9.0553368,13.729632 9.0401353,13.30056 9.0462408,12.502917 c 0.00918,-1.199224 0.07359,-1.861304 0.2136674,-2.196443 0.040293,-0.09639 0.087238,-0.234409 0.104328,-0.3067018 0.01709,-0.072293 0.1054976,-0.2339765 0.1964551,-0.3592961 0.175348,-0.2415955 0.2090471,-0.2556114 0.7101697,-0.2953649 0.400313,-0.031759 0.508787,0.023354 0.963274,0.489439 0.535056,0.5487048 0.740564,0.7833638 0.861565,0.9837698 0.05358,0.08873 0.119482,0.173691 0.146456,0.188796 0.02698,0.01511 0.04905,0.05386 0.04905,0.08612 0,0.03226 0.08705,0.188473 0.19343,0.347137 0.106391,0.158664 0.19343,0.306139 0.19343,0.327722 0,0.02159 0.03153,0.06296 0.07006,0.09192 0.03853,0.02898 0.09608,0.125042 0.127878,0.213484 0.0318,0.08844 0.132014,0.308672 0.222698,0.489406 0.207403,0.413356 0.223102,0.447054 0.357218,0.766753 0.06065,0.144587 0.136804,0.302319 0.169219,0.350514 0.03242,0.0482 0.07422,0.156637 0.09288,0.24098 0.01867,0.08434 0.0937,0.271649 0.16672,0.416236 0.248096,0.491233 0.282442,0.569424 0.365683,0.832474 0.04575,0.144588 0.113446,0.331895 0.150403,0.416237 0.121305,0.276761 0.308242,2.269752 0.308242,3.286203 0,0.751303 -0.09028,1.552365 -0.222208,1.971527 -0.04171,0.132537 -0.101259,0.358321 -0.132336,0.501742 l -0.0565,0.260764 -0.797898,0.0034 c -0.747323,0.0031 -0.822418,0.01123 -1.184756,0.127288 -0.212772,0.06816 -0.418723,0.151392 -0.457669,0.184965 -0.03893,0.03357 -0.08575,0.06104 -0.104026,0.06104 -0.01827,0 -0.14122,-0.113367 -0.273231,-0.251932 z m 4.955983,-0.5291 c 0.561508,-0.474909 1.105699,-1.134941 1.274187,-1.545423 0.199438,-0.485883 0.296811,-0.767761 0.338914,-0.981095 0.02383,-0.120733 0.07518,-0.362555 0.114099,-0.53739 0.07309,-0.328284 0.06456,-0.857804 -0.02137,-1.325158 -0.02436,-0.132541 -0.06822,-0.438145 -0.09746,-0.679125 -0.07812,-0.643933 -0.228115,-1.373008 -0.297005,-1.443682 -0.02231,-0.02289 -0.04058,-0.09289 -0.04058,-0.155541 0,-0.06266 -0.01816,-0.132649 -0.04035,-0.155542 -0.0222,-0.02289 -0.07924,-0.140206 -0.126778,-0.260696 -0.08917,-0.226093 -0.332699,-0.684716 -0.491791,-0.926191 -0.339698,-0.515597 -0.593718,-0.85304 -0.770513,-1.023544 -0.112439,-0.108443 -0.218326,-0.239328 -0.235302,-0.290862 -0.01698,-0.05153 -0.07913,-0.141771 -0.13812,-0.200529 -0.05899,-0.05877 -0.182556,-0.203901 -0.274587,-0.322539 -0.09204,-0.118638 -0.195712,-0.235422 -0.230397,-0.25952 -0.03468,-0.0241 -0.100826,-0.09568 -0.146993,-0.15907 -0.04617,-0.06339 -0.166803,-0.228229 -0.26809,-0.36631 -0.101291,-0.13808 -0.362417,-0.413899 -0.58029,-0.6129316 C 14.186141,9.7577912 13.950081,9.5381595 13.879436,9.4687524 13.808793,9.3993436 13.726392,9.3228421 13.696329,9.2987448 13.666263,9.2746502 13.555752,9.1482609 13.450744,9.0178896 13.345739,8.8875156 13.090841,8.6196214 12.884311,8.4225674 12.677781,8.2255143 12.378238,7.9310162 12.218657,7.7681277 12.059078,7.6052393 11.738106,7.2957719 11.505386,7.080423 11.272666,6.8650739 11.082258,6.6719542 11.082258,6.6512692 c 0,-0.073121 0.257891,-0.094737 0.59831,-0.050157 0.189564,0.024827 0.551388,0.054319 0.804055,0.065529 0.487248,0.021625 0.535323,0.02943 0.993523,0.1612727 0.228639,0.065784 0.347319,0.1353676 0.544635,0.3193088 0.271286,0.2528951 0.947638,0.5961036 1.174731,0.5961036 0.161947,0 0.390071,0.06641 0.71031,0.2067802 0.178403,0.078201 0.458383,0.2939741 0.925449,0.7132245 0.368315,0.3306057 0.684454,0.6433255 0.702529,0.6949306 0.01808,0.051602 0.05316,0.093827 0.07797,0.093827 0.02481,0 0.04511,0.017754 0.04511,0.039458 0,0.07598 0.675448,1.0115384 1.014861,1.4056714 0.188437,0.218816 0.367086,0.446516 0.396997,0.505999 0.02992,0.05949 0.07089,0.108157 0.09105,0.108157 0.02016,0 0.08597,0.07393 0.146248,0.164303 0.06028,0.09037 0.160304,0.223454 0.222281,0.295746 0.186139,0.217123 0.287484,0.353144 0.799814,1.073453 0.317178,0.445936 0.340047,0.484256 0.706033,1.182989 0.351133,0.670375 0.464025,0.92112 0.542478,1.204897 0.03333,0.120485 0.07972,0.241645 0.103133,0.26924 0.0234,0.02759 0.06343,0.15575 0.08894,0.284792 0.0255,0.129052 0.06908,0.333208 0.09682,0.453698 0.02774,0.120484 0.05241,0.435954 0.05484,0.70103 0.0044,0.485299 -0.05724,0.818537 -0.247282,1.336339 -0.04866,0.132539 -0.125669,0.35928 -0.171162,0.503867 -0.06757,0.214746 -0.130627,0.304389 -0.344345,0.489526 -0.262794,0.227647 -0.50206,0.329334 -0.91356,0.388257 -0.37979,0.05438 -1.088215,0.314242 -1.69251,0.620832 -0.05318,0.02699 -0.262316,0.120158 -0.464717,0.207051 -0.202403,0.08688 -0.538894,0.246219 -0.747759,0.354062 -0.208862,0.107843 -0.456718,0.218606 -0.550786,0.246136 -0.09408,0.02753 -0.279787,0.115457 -0.412706,0.195395 -0.164457,0.0989 -0.257159,0.130945 -0.290144,0.100282 -0.03277,-0.03045 0.08035,-0.154002 0.349073,-0.381288 z m 5.526239,-2.791586 c 0,-0.0371 0.04761,-0.150479 0.105812,-0.251935 0.09516,-0.165878 0.105786,-0.250687 0.105484,-0.84168 -2.36e-4,-0.46793 -0.02291,-0.732932 -0.07874,-0.920105 -0.04312,-0.144588 -0.124474,-0.430477 -0.180797,-0.635307 -0.159586,-0.580453 -0.262019,-0.810371 -0.850402,-1.908776 -0.213495,-0.398558 -0.852177,-1.353745 -1.024332,-1.531953 -0.02397,-0.02481 -0.149692,-0.192401 -0.279381,-0.372423 -0.129687,-0.180013 -0.247677,-0.337163 -0.262196,-0.349211 -0.01451,-0.01201 -0.121745,-0.140205 -0.238281,-0.284794 -0.116539,-0.144587 -0.263297,-0.299034 -0.326138,-0.343216 -0.06284,-0.04419 -0.11425,-0.09802 -0.11425,-0.119645 0,-0.02163 -0.114238,-0.189228 -0.253877,-0.372457 C 18.425947,10.295659 18.265891,10.073469 18.209898,9.9851311 18.084763,9.7877031 17.873084,9.4812468 17.691543,9.2346752 17.534809,9.0217956 17.182906,8.6923604 16.765405,8.3676647 16.60645,8.2440465 16.490576,8.1300546 16.507908,8.1143525 c 0.03598,-0.032605 0.30064,0.038815 0.61904,0.1670627 0.119683,0.048207 0.30465,0.1225465 0.411037,0.1652036 0.477074,0.1912818 0.778624,0.3280127 0.837619,0.3797967 0.03514,0.03085 0.09038,0.056092 0.122752,0.056092 0.05981,0 0.246817,0.082717 0.576439,0.2549773 0.100543,0.052546 0.221412,0.095537 0.26859,0.095537 0.04717,0 0.182518,0.055068 0.300763,0.1223832 0.118236,0.06731 0.399952,0.218001 0.626023,0.3348699 0.514683,0.2660677 0.893712,0.4874011 1.11222,0.6494791 0.0931,0.06905 0.231156,0.168673 0.306819,0.221389 0.360216,0.25097 1.337333,1.217943 1.337333,1.323449 0,0.03512 0.381216,0.504839 0.444888,0.548182 0.03105,0.02113 0.142972,0.25099 0.415382,0.853079 0.0545,0.120484 0.156678,0.445813 0.227029,0.722938 0.116514,0.459 0.126184,0.566286 0.108478,1.204896 -0.01927,0.694551 -0.04976,0.890395 -0.204699,1.314431 -0.107899,0.295326 -0.544087,1.080885 -0.616303,1.109966 -0.01994,0.008 -0.03626,0.04215 -0.03626,0.07583 0,0.03368 -0.05984,0.07224 -0.132983,0.08572 -0.07314,0.01346 -0.194589,0.05327 -0.269885,0.08846 -0.0753,0.03519 -0.158204,0.06399 -0.184241,0.06399 -0.02603,0 -0.147087,0.06902 -0.269001,0.153352 -0.121908,0.08434 -0.273887,0.15335 -0.337721,0.15335 -0.06479,0 -0.112591,0.02419 -0.108214,0.05477 0.01499,0.104617 -0.0039,0.164303 -0.05198,0.164303 -0.0266,0 -0.04835,-0.03036 -0.04835,-0.06746 z M 14.689442,7.3490025 c -0.07884,0 -0.150882,-0.07919 -0.107674,-0.1183492 0.02955,-0.026775 0.306365,0.062573 0.40481,0.1306553 0.108918,0.075318 0.0075,0.1262292 -0.111044,0.055792 -0.06309,-0.037456 -0.146837,-0.068104 -0.186097,-0.068104 z m -1.55544,-0.7937116 c -0.01454,-0.021317 -0.16116,-0.038779 -0.32582,-0.038797 -0.164658,-2.02e-5 -0.538748,-0.023195 -0.831311,-0.051496 -0.292563,-0.028302 -0.662497,-0.04833 -0.822076,-0.044494 -0.166241,0.00397 -0.380364,-0.023186 -0.501412,-0.06365 C 10.507674,6.3081532 10.354917,6.2934071 10.161115,6.3093262 9.8497752,6.3349025 9.839653,6.3156762 10.032046,6.0642663 10.203233,5.8405661 10.266544,5.5613681 10.232524,5.1801981 10.187127,4.6714887 10.081365,4.2472244 9.9377637,3.9977169 9.7897916,3.740608 9.7119782,3.1964031 9.8297962,3.2425594 10.727974,3.5944481 10.829,3.5815594 10.76157,3.1236865 10.73292,2.9291434 10.81156,2.6833259 10.888646,2.726489 c 0.0266,0.014897 0.104127,0.1338921 0.172289,0.2644441 0.14161,0.2712175 0.315276,0.4147827 0.501749,0.4147827 0.177369,0 0.244935,-0.075539 0.244935,-0.2738254 0,-0.1700914 0.09413,-0.3844305 0.230937,-0.5257882 0.05288,-0.054654 0.146729,-0.076676 0.326748,-0.076676 0.387197,0 0.432687,0.1040898 0.244621,0.5597472 -0.09657,0.2339783 -0.167464,0.9332233 -0.118538,1.1691622 0.06891,0.3323007 0.224624,0.8090114 0.326612,0.9998971 0.056,0.1048356 0.101851,0.2041775 0.101851,0.2207598 0,0.068544 0.441158,0.8622869 0.479254,0.8622869 0.04322,0 0.105184,0.2213569 0.07454,0.2662846 -0.0254,0.037236 -0.308276,-0.00626 -0.339631,-0.052264 z M 12.046168,25.031649 c 0.04497,-0.0491 0.03882,-0.07138 -0.02924,-0.105898 -0.07797,-0.03953 -0.08472,-0.10813 -0.07084,-0.717884 0.01915,-0.840033 -0.01579,-1.095743 -0.147184,-1.077083 -0.08912,0.01267 -0.0939,0.05907 -0.09845,0.955313 -0.0048,0.940132 -0.0045,0.941989 0.09955,0.931573 0.05737,-0.0057 0.104328,0.009 0.104328,0.03286 0,0.06308 0.07602,0.05296 0.141832,-0.0189 z M 4.419748,1.3142914 c -0.1137371,-0.00925 -0.2878273,-0.00913 -0.3868607,2.814e-4 -0.09904,0.00942 -0.00595,0.016986 0.2067972,0.016827 0.212773,-1.588e-4 0.2938019,-0.00785 0.1800635,-0.017118 z"
       id="path847" />
  </g>
</svg>
